<svg xmlns="http://www.w3.org/2000/svg" version="1.1" xmlns:xlink="http://www.w3.org/1999/xlink" width="512" height="512" x="0" y="0" viewBox="0 0 512 512" style="enable-background:new 0 0 512 512" xml:space="preserve" class=""><g><path fill="#ffffff" d="M512 256c0 52.151-15.6 100.676-42.381 141.134-22.246 33.593-52.193 61.639-87.343 81.596C345.015 499.91 301.923 512 256 512s-89.015-12.089-126.276-33.27c-35.161-19.968-65.118-48.023-87.364-81.627C15.59 356.645 0 308.14 0 256 0 114.615 114.615 0 256 0s256 114.615 256 256z" opacity="1" data-original="#5c5560" class=""></path><path fill="#437ce9" d="M469.619 132.984v264.15c-22.246 33.593-52.193 61.639-87.343 81.596H129.724c-35.161-19.968-65.118-48.023-87.364-81.627V132.984z" opacity="1" data-original="#437ce9" class=""></path><path fill="#4151b9" d="M462.599 83.547c-5.078-17.408-21.034-29.372-39.163-29.372H88.547c-18.129 0-34.085 11.964-39.163 29.372L13.21 207.44v4.409c0 21.755 11.692 40.772 29.153 51.096v.01c8.85 5.235 19.174 8.234 30.187 8.234 15.005 0 28.818-5.601 39.351-14.921 10.522-9.31 17.753-22.361 19.56-37.251l.993-8.108 1.034-8.526a64.092 64.092 0 0 0-.449 7.45c0 .366 0 .721.01 1.076.575 32.914 27.502 60.28 61.471 60.28 33.552 0 60.844-26.885 61.471-60.28.01-.397.01-.784.01-1.181 0 .397 0 .784.01 1.181.627 33.395 27.899 60.28 61.45 60.28 33.98 0 60.897-27.355 61.482-60.28.01-.366.01-.731.01-1.097 0-2.435-.146-4.88-.449-7.367l1.034 8.464.993 8.108a59.24 59.24 0 0 0 19.55 37.251c10.533 9.32 24.357 14.921 39.351 14.921 11.013 0 21.337-2.999 30.187-8.234 17.46-10.334 29.163-29.351 29.163-51.106v-4.409z" opacity="1" data-original="#4151b9" class=""></path><g fill="#7dabfa"><path d="M378.955 209.812c0 .366 0 .731-.01 1.097-.585 32.925-27.502 60.28-61.482 60.28-33.552 0-60.823-26.885-61.45-60.28-.01-.397-.01-.784-.01-1.181V54.175H360.43l18.066 148.104c.01.052.01.115.01.167.303 2.487.449 4.932.449 7.366zM151.544 54.175l-18.045 148.104c0 .042-.01.063-.01.104l-1.034 8.526-.993 8.108c-1.808 14.89-9.038 27.941-19.56 37.251-10.533 9.32-24.346 14.921-39.351 14.921-11.013 0-21.337-2.999-30.187-8.234v-.01c-17.46-10.324-29.153-29.341-29.153-51.096v-4.409L49.384 83.547c5.078-17.408 21.034-29.372 39.163-29.372z" fill="#7dabfa" opacity="1" data-original="#7dabfa"></path></g><g fill="#76a0e6"><path d="M13.21 210.91h119.244l-.993 8.108c-1.808 14.89-9.038 27.941-19.56 37.251-10.533 9.32-24.346 14.921-39.351 14.921-11.013 0-21.337-2.999-30.187-8.234v-.01c-17.46-10.324-29.153-29.341-29.153-51.096v-.94zM378.945 210.91c-.585 32.925-27.502 60.28-61.482 60.28-33.552 0-60.823-26.885-61.45-60.28z" fill="#76a0e6" opacity="1" data-original="#76a0e6"></path></g><g fill="#3e4cab"><path d="M133.049 210.91h122.943c-.627 33.395-27.92 60.28-61.471 60.28-33.97 0-60.897-27.366-61.472-60.28zM498.784 210.91v.94c0 21.755-11.703 40.772-29.163 51.106-8.85 5.235-19.174 8.234-30.187 8.234-14.994 0-28.818-5.601-39.351-14.921a59.24 59.24 0 0 1-19.55-37.251l-.993-8.108z" fill="#3e4cab" opacity="1" data-original="#3e4cab"></path></g><path fill="#ffffff" d="M434.248 378.058h-60.212v24.799h33.519c-3.017 8.053-8.745 14.779-16.075 19.078a37.063 37.063 0 0 1-18.823 5.097c-15.978 0-29.606-10.057-34.901-24.185a37.074 37.074 0 0 1-2.362-13.078c0-4.24.709-8.314 2.011-12.11 5.029-14.635 18.913-25.153 35.252-25.153 7.236 0 13.99 2.063 19.705 5.635l20.308-16.625c-10.857-9.013-24.802-14.431-40.011-14.431-24.227 0-45.243 13.742-55.676 33.857-4.481 8.631-7.009 18.433-7.009 28.829 0 10.75 2.704 20.866 7.471 29.706 10.588 19.636 31.343 32.978 55.215 32.978a62.416 62.416 0 0 0 39.243-13.801c11.046-8.88 19.019-21.427 22.07-35.796a62.795 62.795 0 0 0 1.371-13.088 62.833 62.833 0 0 0-1.096-11.712z" opacity="1" data-original="#eeeeee" class=""></path><path fill="#4989f8" d="M258.132 478.73H129.724c-35.161-19.968-65.118-48.023-87.364-81.627V262.959z" opacity="1" data-original="#4989f8" class=""></path></g></svg>